<mxfile host="Electron" modified="2024-05-25T14:43:03.273Z" agent="Mozilla/5.0 (X11; Linux x86_64) AppleWebKit/537.36 (KHTML, like Gecko) draw.io/24.2.5 Chrome/120.0.6099.109 Electron/28.1.0 Safari/537.36" etag="ihNuTBZ51KTuoU3TqpRC" version="24.2.5" type="device">
  <diagram name="Page-1" id="K-FIC4L19wNbAjvmYsdw">
    <mxGraphModel dx="2284" dy="841" grid="1" gridSize="10" guides="1" tooltips="1" connect="1" arrows="1" fold="1" page="1" pageScale="1" pageWidth="850" pageHeight="1100" math="0" shadow="0">
      <root>
        <mxCell id="0" />
        <mxCell id="1" parent="0" />
        <mxCell id="ljewHxEcHpymSgs0MfJS-26" value="" style="rounded=1;whiteSpace=wrap;html=1;dashed=1;fillColor=#fff2cc;strokeColor=#d6b656;" parent="1" vertex="1">
          <mxGeometry x="90" y="280" width="400" height="130" as="geometry" />
        </mxCell>
        <mxCell id="ljewHxEcHpymSgs0MfJS-27" value="MLP" style="text;html=1;align=center;verticalAlign=middle;whiteSpace=wrap;rounded=0;" parent="1" vertex="1">
          <mxGeometry x="255" y="280" width="60" height="30" as="geometry" />
        </mxCell>
        <mxCell id="ljewHxEcHpymSgs0MfJS-44" style="edgeStyle=orthogonalEdgeStyle;rounded=0;orthogonalLoop=1;jettySize=auto;html=1;entryX=0.5;entryY=1;entryDx=0;entryDy=0;" parent="1" source="ljewHxEcHpymSgs0MfJS-28" target="ljewHxEcHpymSgs0MfJS-30" edge="1">
          <mxGeometry relative="1" as="geometry" />
        </mxCell>
        <mxCell id="ljewHxEcHpymSgs0MfJS-28" value="fc 2048" style="rounded=0;whiteSpace=wrap;html=1;rotation=90;" parent="1" vertex="1">
          <mxGeometry x="90" y="342.5" width="70" height="25" as="geometry" />
        </mxCell>
        <mxCell id="ljewHxEcHpymSgs0MfJS-46" style="edgeStyle=orthogonalEdgeStyle;rounded=0;orthogonalLoop=1;jettySize=auto;html=1;" parent="1" source="ljewHxEcHpymSgs0MfJS-29" target="ljewHxEcHpymSgs0MfJS-31" edge="1">
          <mxGeometry relative="1" as="geometry" />
        </mxCell>
        <mxCell id="ljewHxEcHpymSgs0MfJS-29" value="fc 2048" style="rounded=0;whiteSpace=wrap;html=1;rotation=90;" parent="1" vertex="1">
          <mxGeometry x="210" y="342.5" width="70" height="25" as="geometry" />
        </mxCell>
        <mxCell id="ljewHxEcHpymSgs0MfJS-45" style="edgeStyle=orthogonalEdgeStyle;rounded=0;orthogonalLoop=1;jettySize=auto;html=1;entryX=0.5;entryY=1;entryDx=0;entryDy=0;" parent="1" source="ljewHxEcHpymSgs0MfJS-30" target="ljewHxEcHpymSgs0MfJS-29" edge="1">
          <mxGeometry relative="1" as="geometry" />
        </mxCell>
        <mxCell id="ljewHxEcHpymSgs0MfJS-30" value="relu" style="rounded=0;whiteSpace=wrap;html=1;rotation=90;" parent="1" vertex="1">
          <mxGeometry x="150" y="342.5" width="70" height="25" as="geometry" />
        </mxCell>
        <mxCell id="M7D5lyLpoFJ9LOZT882y-3" style="edgeStyle=orthogonalEdgeStyle;rounded=0;orthogonalLoop=1;jettySize=auto;html=1;" parent="1" source="ljewHxEcHpymSgs0MfJS-31" target="M7D5lyLpoFJ9LOZT882y-2" edge="1">
          <mxGeometry relative="1" as="geometry" />
        </mxCell>
        <mxCell id="ljewHxEcHpymSgs0MfJS-31" value="relu" style="rounded=0;whiteSpace=wrap;html=1;rotation=90;" parent="1" vertex="1">
          <mxGeometry x="270" y="342.5" width="70" height="25" as="geometry" />
        </mxCell>
        <mxCell id="ljewHxEcHpymSgs0MfJS-25" value="text features" style="rounded=0;whiteSpace=wrap;html=1;rotation=90;fillColor=#fff2cc;strokeColor=#d6b656;" parent="1" vertex="1">
          <mxGeometry x="500" y="330" width="90" height="30" as="geometry" />
        </mxCell>
        <mxCell id="ljewHxEcHpymSgs0MfJS-48" style="edgeStyle=orthogonalEdgeStyle;rounded=0;orthogonalLoop=1;jettySize=auto;html=1;" parent="1" source="ljewHxEcHpymSgs0MfJS-26" target="ljewHxEcHpymSgs0MfJS-25" edge="1">
          <mxGeometry relative="1" as="geometry" />
        </mxCell>
        <mxCell id="M7D5lyLpoFJ9LOZT882y-6" style="edgeStyle=orthogonalEdgeStyle;rounded=0;orthogonalLoop=1;jettySize=auto;html=1;" parent="1" source="Mq1jqRj8me7Z0p1k6pqm-5" target="ljewHxEcHpymSgs0MfJS-26" edge="1">
          <mxGeometry relative="1" as="geometry" />
        </mxCell>
        <mxCell id="Mq1jqRj8me7Z0p1k6pqm-5" value="" style="rounded=1;whiteSpace=wrap;html=1;" parent="1" vertex="1">
          <mxGeometry x="-180" y="284.5" width="242" height="120" as="geometry" />
        </mxCell>
        <mxCell id="Mq1jqRj8me7Z0p1k6pqm-6" value="Шумні теги" style="text;html=1;align=center;verticalAlign=middle;whiteSpace=wrap;rounded=0;" parent="1" vertex="1">
          <mxGeometry x="-98" y="289.5" width="80" height="30" as="geometry" />
        </mxCell>
        <mxCell id="Mq1jqRj8me7Z0p1k6pqm-7" value="sports, waves" style="text;html=1;align=center;verticalAlign=middle;whiteSpace=wrap;rounded=0;" parent="1" vertex="1">
          <mxGeometry x="-133" y="319.5" width="150" height="80" as="geometry" />
        </mxCell>
        <mxCell id="M7D5lyLpoFJ9LOZT882y-1" value="sigmoid" style="rounded=0;whiteSpace=wrap;html=1;rotation=90;" parent="1" vertex="1">
          <mxGeometry x="410" y="342.5" width="70" height="25" as="geometry" />
        </mxCell>
        <mxCell id="M7D5lyLpoFJ9LOZT882y-4" style="edgeStyle=orthogonalEdgeStyle;rounded=0;orthogonalLoop=1;jettySize=auto;html=1;" parent="1" source="M7D5lyLpoFJ9LOZT882y-2" target="M7D5lyLpoFJ9LOZT882y-1" edge="1">
          <mxGeometry relative="1" as="geometry" />
        </mxCell>
        <mxCell id="M7D5lyLpoFJ9LOZT882y-2" value="fc 81" style="rounded=0;whiteSpace=wrap;html=1;rotation=90;" parent="1" vertex="1">
          <mxGeometry x="340" y="342.5" width="70" height="25" as="geometry" />
        </mxCell>
        <mxCell id="GHTzo5dPfjWQMg5shfAh-19" value="" style="rounded=1;whiteSpace=wrap;html=1;fillColor=none;dashed=1;dashPattern=8 8;" parent="1" vertex="1">
          <mxGeometry x="340" y="290" width="140" height="110" as="geometry" />
        </mxCell>
        <mxCell id="GHTzo5dPfjWQMg5shfAh-20" value="text feature extractor" style="text;html=1;align=center;verticalAlign=middle;whiteSpace=wrap;rounded=0;" parent="1" vertex="1">
          <mxGeometry x="350" y="287.5" width="120" height="30" as="geometry" />
        </mxCell>
      </root>
    </mxGraphModel>
  </diagram>
</mxfile>
